<mxfile host="app.diagrams.net" modified="2021-01-08T09:19:41.699Z" agent="5.0 (Windows NT 10.0; Win64; x64) AppleWebKit/537.36 (KHTML, like Gecko) Chrome/87.0.4280.88 Safari/537.36 Edg/87.0.664.66" etag="DpDEd73PRFJ_3auBhnGz" version="14.1.8" type="github" pages="4">
  <diagram id="r1og0uCHNFm6T4KjdNjF" name="Page-1">
    <mxGraphModel dx="957" dy="542" grid="1" gridSize="10" guides="1" tooltips="1" connect="1" arrows="1" fold="1" page="1" pageScale="1" pageWidth="827" pageHeight="1169" math="0" shadow="0">
      <root>
        <mxCell id="0" />
        <mxCell id="1" parent="0" />
        <mxCell id="4kmgBPgbUo3qxSBK6bsD-1" value="Actor" style="shape=umlActor;verticalLabelPosition=bottom;verticalAlign=top;html=1;outlineConnect=0;" vertex="1" parent="1">
          <mxGeometry x="110" y="60" width="30" height="60" as="geometry" />
        </mxCell>
        <mxCell id="4kmgBPgbUo3qxSBK6bsD-2" value="Igranje Milijunaša" style="ellipse;whiteSpace=wrap;html=1;" vertex="1" parent="1">
          <mxGeometry x="270" y="130" width="140" height="70" as="geometry" />
        </mxCell>
        <mxCell id="4kmgBPgbUo3qxSBK6bsD-3" value="Unos igrača" style="ellipse;whiteSpace=wrap;html=1;" vertex="1" parent="1">
          <mxGeometry x="500" y="90" width="140" height="70" as="geometry" />
        </mxCell>
        <mxCell id="4kmgBPgbUo3qxSBK6bsD-4" value="" style="endArrow=none;html=1;" edge="1" parent="1" source="4kmgBPgbUo3qxSBK6bsD-1" target="4kmgBPgbUo3qxSBK6bsD-2">
          <mxGeometry width="50" height="50" relative="1" as="geometry">
            <mxPoint x="390" y="310" as="sourcePoint" />
            <mxPoint x="440" y="260" as="targetPoint" />
            <Array as="points" />
          </mxGeometry>
        </mxCell>
        <mxCell id="4kmgBPgbUo3qxSBK6bsD-6" value="Use" style="endArrow=open;endSize=12;dashed=1;html=1;" edge="1" parent="1" source="4kmgBPgbUo3qxSBK6bsD-2">
          <mxGeometry width="160" relative="1" as="geometry">
            <mxPoint x="350" y="110" as="sourcePoint" />
            <mxPoint x="510" y="110" as="targetPoint" />
          </mxGeometry>
        </mxCell>
        <mxCell id="4kmgBPgbUo3qxSBK6bsD-7" value="Postavljanje pitanja" style="ellipse;whiteSpace=wrap;html=1;" vertex="1" parent="1">
          <mxGeometry x="470" y="210" width="140" height="70" as="geometry" />
        </mxCell>
        <mxCell id="4kmgBPgbUo3qxSBK6bsD-8" value="Odgovor na pitanje" style="ellipse;whiteSpace=wrap;html=1;" vertex="1" parent="1">
          <mxGeometry x="410" y="300" width="140" height="70" as="geometry" />
        </mxCell>
        <mxCell id="4kmgBPgbUo3qxSBK6bsD-9" value="Izračun osvojenog iznosa" style="ellipse;whiteSpace=wrap;html=1;" vertex="1" parent="1">
          <mxGeometry x="230" y="370" width="140" height="70" as="geometry" />
        </mxCell>
        <mxCell id="4kmgBPgbUo3qxSBK6bsD-10" value="Use" style="endArrow=open;endSize=12;dashed=1;html=1;entryX=0.311;entryY=0.045;entryDx=0;entryDy=0;entryPerimeter=0;exitX=0.96;exitY=0.708;exitDx=0;exitDy=0;exitPerimeter=0;" edge="1" parent="1" source="4kmgBPgbUo3qxSBK6bsD-2" target="4kmgBPgbUo3qxSBK6bsD-7">
          <mxGeometry width="160" relative="1" as="geometry">
            <mxPoint x="408.76991100065175" y="155.98620526449486" as="sourcePoint" />
            <mxPoint x="520" y="120" as="targetPoint" />
            <Array as="points" />
          </mxGeometry>
        </mxCell>
        <mxCell id="4kmgBPgbUo3qxSBK6bsD-11" value="Use" style="endArrow=open;endSize=12;dashed=1;html=1;entryX=0.006;entryY=0.279;entryDx=0;entryDy=0;entryPerimeter=0;exitX=0.642;exitY=0.994;exitDx=0;exitDy=0;exitPerimeter=0;" edge="1" parent="1" source="4kmgBPgbUo3qxSBK6bsD-2" target="4kmgBPgbUo3qxSBK6bsD-8">
          <mxGeometry width="160" relative="1" as="geometry">
            <mxPoint x="269.99991100065176" y="285.98620526449486" as="sourcePoint" />
            <mxPoint x="381.23" y="250" as="targetPoint" />
          </mxGeometry>
        </mxCell>
        <mxCell id="4kmgBPgbUo3qxSBK6bsD-12" value="Use" style="endArrow=open;endSize=12;dashed=1;html=1;entryX=0.454;entryY=-0.058;entryDx=0;entryDy=0;entryPerimeter=0;" edge="1" parent="1" source="4kmgBPgbUo3qxSBK6bsD-2" target="4kmgBPgbUo3qxSBK6bsD-9">
          <mxGeometry width="160" relative="1" as="geometry">
            <mxPoint x="219.99991100065174" y="299.99620526449485" as="sourcePoint" />
            <mxPoint x="331.23" y="264.01" as="targetPoint" />
          </mxGeometry>
        </mxCell>
      </root>
    </mxGraphModel>
  </diagram>
  <diagram id="1D83XkJCZ689sOul0O0H" name="Page-2">
    <mxGraphModel dx="957" dy="542" grid="1" gridSize="10" guides="1" tooltips="1" connect="1" arrows="1" fold="1" page="1" pageScale="1" pageWidth="827" pageHeight="1169" math="0" shadow="0">
      <root>
        <mxCell id="8BKieX1xrE59y4DQv1cV-0" />
        <mxCell id="8BKieX1xrE59y4DQv1cV-1" parent="8BKieX1xrE59y4DQv1cV-0" />
        <mxCell id="Q4W9A7SywVuZ4GrKVSb1-0" value="" style="ellipse;html=1;shape=startState;fillColor=#000000;strokeColor=#ff0000;" vertex="1" parent="8BKieX1xrE59y4DQv1cV-1">
          <mxGeometry x="350" y="20" width="30" height="30" as="geometry" />
        </mxCell>
        <mxCell id="Q4W9A7SywVuZ4GrKVSb1-1" value="" style="edgeStyle=orthogonalEdgeStyle;html=1;verticalAlign=bottom;endArrow=open;endSize=8;strokeColor=#ff0000;" edge="1" source="Q4W9A7SywVuZ4GrKVSb1-0" parent="8BKieX1xrE59y4DQv1cV-1">
          <mxGeometry relative="1" as="geometry">
            <mxPoint x="365" y="110" as="targetPoint" />
          </mxGeometry>
        </mxCell>
        <mxCell id="Q4W9A7SywVuZ4GrKVSb1-2" value="" style="ellipse;html=1;shape=endState;fillColor=#000000;strokeColor=#ff0000;" vertex="1" parent="8BKieX1xrE59y4DQv1cV-1">
          <mxGeometry x="535" y="840" width="30" height="30" as="geometry" />
        </mxCell>
        <mxCell id="Q4W9A7SywVuZ4GrKVSb1-4" value="Unos igrača" style="rounded=1;whiteSpace=wrap;html=1;arcSize=40;fontColor=#000000;fillColor=#ffffc0;strokeColor=#ff0000;" vertex="1" parent="8BKieX1xrE59y4DQv1cV-1">
          <mxGeometry x="305" y="110" width="120" height="40" as="geometry" />
        </mxCell>
        <mxCell id="Q4W9A7SywVuZ4GrKVSb1-5" value="" style="edgeStyle=orthogonalEdgeStyle;html=1;verticalAlign=bottom;endArrow=open;endSize=8;strokeColor=#ff0000;" edge="1" source="Q4W9A7SywVuZ4GrKVSb1-4" parent="8BKieX1xrE59y4DQv1cV-1" target="Q4W9A7SywVuZ4GrKVSb1-9">
          <mxGeometry relative="1" as="geometry">
            <mxPoint x="365" y="210" as="targetPoint" />
          </mxGeometry>
        </mxCell>
        <mxCell id="Q4W9A7SywVuZ4GrKVSb1-9" value="Postavljanje pitanja" style="rounded=1;whiteSpace=wrap;html=1;arcSize=40;fontColor=#000000;fillColor=#ffffc0;strokeColor=#ff0000;" vertex="1" parent="8BKieX1xrE59y4DQv1cV-1">
          <mxGeometry x="305" y="190" width="120" height="50" as="geometry" />
        </mxCell>
        <mxCell id="Q4W9A7SywVuZ4GrKVSb1-11" value="Odgovara" style="rhombus;whiteSpace=wrap;html=1;fillColor=#ffffc0;strokeColor=#ff0000;" vertex="1" parent="8BKieX1xrE59y4DQv1cV-1">
          <mxGeometry x="325" y="310" width="80" height="40" as="geometry" />
        </mxCell>
        <mxCell id="Q4W9A7SywVuZ4GrKVSb1-12" value="no" style="edgeStyle=orthogonalEdgeStyle;html=1;align=left;verticalAlign=bottom;endArrow=open;endSize=8;strokeColor=#ff0000;entryX=0.5;entryY=0;entryDx=0;entryDy=0;" edge="1" source="Q4W9A7SywVuZ4GrKVSb1-11" parent="8BKieX1xrE59y4DQv1cV-1" target="Q4W9A7SywVuZ4GrKVSb1-17">
          <mxGeometry x="-1" relative="1" as="geometry">
            <mxPoint x="504" y="330" as="targetPoint" />
          </mxGeometry>
        </mxCell>
        <mxCell id="Q4W9A7SywVuZ4GrKVSb1-13" value="yes" style="edgeStyle=orthogonalEdgeStyle;html=1;align=left;verticalAlign=top;endArrow=open;endSize=8;strokeColor=#ff0000;" edge="1" source="Q4W9A7SywVuZ4GrKVSb1-11" parent="8BKieX1xrE59y4DQv1cV-1">
          <mxGeometry x="-1" relative="1" as="geometry">
            <mxPoint x="364" y="410" as="targetPoint" />
          </mxGeometry>
        </mxCell>
        <mxCell id="Q4W9A7SywVuZ4GrKVSb1-16" value="" style="edgeStyle=orthogonalEdgeStyle;html=1;verticalAlign=bottom;endArrow=open;endSize=8;strokeColor=#ff0000;entryX=0.5;entryY=0;entryDx=0;entryDy=0;" edge="1" parent="8BKieX1xrE59y4DQv1cV-1" target="Q4W9A7SywVuZ4GrKVSb1-11">
          <mxGeometry relative="1" as="geometry">
            <mxPoint x="364" y="300" as="targetPoint" />
            <mxPoint x="364" y="240" as="sourcePoint" />
          </mxGeometry>
        </mxCell>
        <mxCell id="Q4W9A7SywVuZ4GrKVSb1-17" value="Izračun osvojenog iznosa" style="rounded=1;whiteSpace=wrap;html=1;arcSize=40;fontColor=#000000;fillColor=#ffffc0;strokeColor=#ff0000;" vertex="1" parent="8BKieX1xrE59y4DQv1cV-1">
          <mxGeometry x="500" y="770" width="120" height="40" as="geometry" />
        </mxCell>
        <mxCell id="Q4W9A7SywVuZ4GrKVSb1-18" value="" style="edgeStyle=orthogonalEdgeStyle;html=1;verticalAlign=bottom;endArrow=open;endSize=8;strokeColor=#ff0000;entryX=0.5;entryY=0;entryDx=0;entryDy=0;" edge="1" source="Q4W9A7SywVuZ4GrKVSb1-17" parent="8BKieX1xrE59y4DQv1cV-1" target="Q4W9A7SywVuZ4GrKVSb1-2">
          <mxGeometry relative="1" as="geometry">
            <mxPoint x="550" y="730" as="targetPoint" />
            <Array as="points">
              <mxPoint x="550" y="810" />
              <mxPoint x="550" y="810" />
            </Array>
          </mxGeometry>
        </mxCell>
        <mxCell id="Q4W9A7SywVuZ4GrKVSb1-19" value="Odgovaranje&lt;br&gt;" style="rounded=1;whiteSpace=wrap;html=1;arcSize=40;fontColor=#000000;fillColor=#ffffc0;strokeColor=#ff0000;" vertex="1" parent="8BKieX1xrE59y4DQv1cV-1">
          <mxGeometry x="305" y="410" width="120" height="40" as="geometry" />
        </mxCell>
        <mxCell id="Q4W9A7SywVuZ4GrKVSb1-20" value="" style="edgeStyle=orthogonalEdgeStyle;html=1;verticalAlign=bottom;endArrow=open;endSize=8;strokeColor=#ff0000;entryX=0.5;entryY=0;entryDx=0;entryDy=0;" edge="1" source="Q4W9A7SywVuZ4GrKVSb1-19" parent="8BKieX1xrE59y4DQv1cV-1" target="Q4W9A7SywVuZ4GrKVSb1-21">
          <mxGeometry relative="1" as="geometry">
            <mxPoint x="365" y="510" as="targetPoint" />
          </mxGeometry>
        </mxCell>
        <mxCell id="Q4W9A7SywVuZ4GrKVSb1-21" value="Odgovor točan" style="rhombus;whiteSpace=wrap;html=1;fillColor=#ffffc0;strokeColor=#ff0000;" vertex="1" parent="8BKieX1xrE59y4DQv1cV-1">
          <mxGeometry x="245" y="540" width="80" height="40" as="geometry" />
        </mxCell>
        <mxCell id="Q4W9A7SywVuZ4GrKVSb1-22" value="no" style="edgeStyle=orthogonalEdgeStyle;html=1;align=left;verticalAlign=bottom;endArrow=open;endSize=8;strokeColor=#ff0000;entryX=0;entryY=0.75;entryDx=0;entryDy=0;" edge="1" source="Q4W9A7SywVuZ4GrKVSb1-21" parent="8BKieX1xrE59y4DQv1cV-1" target="Q4W9A7SywVuZ4GrKVSb1-17">
          <mxGeometry x="-1" relative="1" as="geometry">
            <mxPoint x="425" y="560" as="targetPoint" />
          </mxGeometry>
        </mxCell>
        <mxCell id="Q4W9A7SywVuZ4GrKVSb1-23" value="yes" style="edgeStyle=orthogonalEdgeStyle;html=1;align=left;verticalAlign=top;endArrow=open;endSize=8;strokeColor=#ff0000;" edge="1" source="Q4W9A7SywVuZ4GrKVSb1-21" parent="8BKieX1xrE59y4DQv1cV-1">
          <mxGeometry x="-1" relative="1" as="geometry">
            <mxPoint x="285" y="640" as="targetPoint" />
          </mxGeometry>
        </mxCell>
        <mxCell id="Q4W9A7SywVuZ4GrKVSb1-27" value="Odgovorio na 15 pitanja" style="rhombus;whiteSpace=wrap;html=1;fillColor=#ffffc0;strokeColor=#ff0000;rotation=0;" vertex="1" parent="8BKieX1xrE59y4DQv1cV-1">
          <mxGeometry x="240" y="640" width="140" height="40" as="geometry" />
        </mxCell>
        <mxCell id="Q4W9A7SywVuZ4GrKVSb1-28" value="no" style="edgeStyle=orthogonalEdgeStyle;html=1;align=left;verticalAlign=bottom;endArrow=open;endSize=8;strokeColor=#ff0000;entryX=0;entryY=0.5;entryDx=0;entryDy=0;" edge="1" parent="8BKieX1xrE59y4DQv1cV-1" target="Q4W9A7SywVuZ4GrKVSb1-9">
          <mxGeometry x="-1" relative="1" as="geometry">
            <mxPoint x="80" y="300" as="targetPoint" />
            <mxPoint x="250" y="660" as="sourcePoint" />
            <Array as="points">
              <mxPoint x="160" y="660" />
              <mxPoint x="160" y="215" />
            </Array>
          </mxGeometry>
        </mxCell>
        <mxCell id="Q4W9A7SywVuZ4GrKVSb1-29" value="yes" style="edgeStyle=orthogonalEdgeStyle;html=1;align=left;verticalAlign=top;endArrow=open;endSize=8;strokeColor=#ff0000;entryX=0.25;entryY=0;entryDx=0;entryDy=0;exitX=0.5;exitY=1;exitDx=0;exitDy=0;" edge="1" source="Q4W9A7SywVuZ4GrKVSb1-27" parent="8BKieX1xrE59y4DQv1cV-1" target="Q4W9A7SywVuZ4GrKVSb1-17">
          <mxGeometry x="-1" relative="1" as="geometry">
            <mxPoint x="500" y="800" as="targetPoint" />
            <Array as="points">
              <mxPoint x="313" y="710" />
              <mxPoint x="530" y="710" />
            </Array>
          </mxGeometry>
        </mxCell>
      </root>
    </mxGraphModel>
  </diagram>
  <diagram id="CbQQVxnavWE6Y4liIShK" name="Page-3">
    <mxGraphModel dx="957" dy="542" grid="1" gridSize="10" guides="1" tooltips="1" connect="1" arrows="1" fold="1" page="1" pageScale="1" pageWidth="827" pageHeight="1169" math="0" shadow="0">
      <root>
        <mxCell id="wAXHmxslM8Cl57u_N9g3-0" />
        <mxCell id="wAXHmxslM8Cl57u_N9g3-1" parent="wAXHmxslM8Cl57u_N9g3-0" />
        <mxCell id="wAXHmxslM8Cl57u_N9g3-3" value="" style="ellipse;html=1;shape=startState;fillColor=#000000;strokeColor=#ff0000;" vertex="1" parent="wAXHmxslM8Cl57u_N9g3-1">
          <mxGeometry x="340" y="10" width="30" height="30" as="geometry" />
        </mxCell>
        <mxCell id="wAXHmxslM8Cl57u_N9g3-4" value="" style="edgeStyle=orthogonalEdgeStyle;html=1;verticalAlign=bottom;endArrow=open;endSize=8;strokeColor=#ff0000;" edge="1" source="wAXHmxslM8Cl57u_N9g3-3" parent="wAXHmxslM8Cl57u_N9g3-1">
          <mxGeometry relative="1" as="geometry">
            <mxPoint x="355" y="100" as="targetPoint" />
          </mxGeometry>
        </mxCell>
        <mxCell id="PxOuT1fJSN0E9udScYd1-0" value="Unos igrača" style="swimlane;html=1;fontStyle=1;align=center;verticalAlign=middle;childLayout=stackLayout;horizontal=1;startSize=30;horizontalStack=0;resizeParent=0;resizeLast=1;container=0;fontColor=#000000;collapsible=0;rounded=1;arcSize=30;strokeColor=#ff0000;fillColor=#ffffc0;swimlaneFillColor=#ffffc0;dropTarget=0;" vertex="1" parent="wAXHmxslM8Cl57u_N9g3-1">
          <mxGeometry x="275" y="100" width="160" height="60" as="geometry" />
        </mxCell>
        <mxCell id="PxOuT1fJSN0E9udScYd1-1" value="Include / Unos igrača" style="text;html=1;strokeColor=none;fillColor=none;align=center;verticalAlign=middle;spacingLeft=4;spacingRight=4;whiteSpace=wrap;overflow=hidden;rotatable=0;fontColor=#000000;" vertex="1" parent="PxOuT1fJSN0E9udScYd1-0">
          <mxGeometry y="30" width="160" height="30" as="geometry" />
        </mxCell>
        <mxCell id="PxOuT1fJSN0E9udScYd1-2" value="" style="edgeStyle=orthogonalEdgeStyle;html=1;verticalAlign=bottom;endArrow=open;endSize=8;strokeColor=#ff0000;" edge="1" source="PxOuT1fJSN0E9udScYd1-0" parent="wAXHmxslM8Cl57u_N9g3-1">
          <mxGeometry relative="1" as="geometry">
            <mxPoint x="355" y="210" as="targetPoint" />
          </mxGeometry>
        </mxCell>
        <mxCell id="jcJg4d79mtAPE0NVaKH0-0" value="Postavlajnje pitanja" style="swimlane;html=1;fontStyle=1;align=center;verticalAlign=middle;childLayout=stackLayout;horizontal=1;startSize=30;horizontalStack=0;resizeParent=0;resizeLast=1;container=0;fontColor=#000000;collapsible=0;rounded=1;arcSize=30;strokeColor=#ff0000;fillColor=#ffffc0;swimlaneFillColor=#ffffc0;dropTarget=0;" vertex="1" parent="wAXHmxslM8Cl57u_N9g3-1">
          <mxGeometry x="275" y="210" width="160" height="60" as="geometry" />
        </mxCell>
        <mxCell id="jcJg4d79mtAPE0NVaKH0-1" value="Include/ Postavljanje pitanja" style="text;html=1;strokeColor=none;fillColor=none;align=center;verticalAlign=middle;spacingLeft=4;spacingRight=4;whiteSpace=wrap;overflow=hidden;rotatable=0;fontColor=#000000;" vertex="1" parent="jcJg4d79mtAPE0NVaKH0-0">
          <mxGeometry y="30" width="160" height="30" as="geometry" />
        </mxCell>
        <mxCell id="jcJg4d79mtAPE0NVaKH0-2" value="" style="edgeStyle=orthogonalEdgeStyle;html=1;verticalAlign=bottom;endArrow=open;endSize=8;strokeColor=#ff0000;entryX=0.5;entryY=0;entryDx=0;entryDy=0;" edge="1" source="jcJg4d79mtAPE0NVaKH0-0" parent="wAXHmxslM8Cl57u_N9g3-1" target="IWJHYMp2H40F229CH8A2-0">
          <mxGeometry relative="1" as="geometry">
            <mxPoint x="355" y="320" as="targetPoint" />
          </mxGeometry>
        </mxCell>
        <mxCell id="IWJHYMp2H40F229CH8A2-0" value="Odgovara" style="rhombus;whiteSpace=wrap;html=1;fillColor=#ffffc0;strokeColor=#ff0000;" vertex="1" parent="wAXHmxslM8Cl57u_N9g3-1">
          <mxGeometry x="310" y="320" width="80" height="40" as="geometry" />
        </mxCell>
        <mxCell id="IWJHYMp2H40F229CH8A2-1" value="no" style="edgeStyle=orthogonalEdgeStyle;html=1;align=left;verticalAlign=bottom;endArrow=open;endSize=8;strokeColor=#ff0000;entryX=1;entryY=0.5;entryDx=0;entryDy=0;" edge="1" source="IWJHYMp2H40F229CH8A2-0" parent="wAXHmxslM8Cl57u_N9g3-1">
          <mxGeometry x="-1" relative="1" as="geometry">
            <mxPoint x="630" y="1080" as="targetPoint" />
          </mxGeometry>
        </mxCell>
        <mxCell id="IWJHYMp2H40F229CH8A2-2" value="yes" style="edgeStyle=orthogonalEdgeStyle;html=1;align=left;verticalAlign=top;endArrow=open;endSize=8;strokeColor=#ff0000;" edge="1" source="IWJHYMp2H40F229CH8A2-0" parent="wAXHmxslM8Cl57u_N9g3-1">
          <mxGeometry x="-1" relative="1" as="geometry">
            <mxPoint x="350" y="420" as="targetPoint" />
          </mxGeometry>
        </mxCell>
        <mxCell id="E_8Ji15eINzWiKu_0gxi-0" value="Odgovaranje" style="swimlane;html=1;fontStyle=1;align=center;verticalAlign=middle;childLayout=stackLayout;horizontal=1;startSize=30;horizontalStack=0;resizeParent=0;resizeLast=1;container=0;fontColor=#000000;collapsible=0;rounded=1;arcSize=30;strokeColor=#ff0000;fillColor=#ffffc0;swimlaneFillColor=#ffffc0;dropTarget=0;" vertex="1" parent="wAXHmxslM8Cl57u_N9g3-1">
          <mxGeometry x="270" y="420" width="160" height="60" as="geometry" />
        </mxCell>
        <mxCell id="E_8Ji15eINzWiKu_0gxi-1" value="Include/ Odgovaranje" style="text;html=1;strokeColor=none;fillColor=none;align=center;verticalAlign=middle;spacingLeft=4;spacingRight=4;whiteSpace=wrap;overflow=hidden;rotatable=0;fontColor=#000000;" vertex="1" parent="E_8Ji15eINzWiKu_0gxi-0">
          <mxGeometry y="30" width="160" height="30" as="geometry" />
        </mxCell>
        <mxCell id="E_8Ji15eINzWiKu_0gxi-2" value="" style="edgeStyle=orthogonalEdgeStyle;html=1;verticalAlign=bottom;endArrow=open;endSize=8;strokeColor=#ff0000;entryX=0.5;entryY=0;entryDx=0;entryDy=0;" edge="1" source="E_8Ji15eINzWiKu_0gxi-0" parent="wAXHmxslM8Cl57u_N9g3-1" target="LAQwIaWgyO3f-h2tZl_8-0">
          <mxGeometry relative="1" as="geometry">
            <mxPoint x="350" y="540" as="targetPoint" />
          </mxGeometry>
        </mxCell>
        <mxCell id="LAQwIaWgyO3f-h2tZl_8-0" value="Odgovor točan" style="rhombus;whiteSpace=wrap;html=1;fillColor=#ffffc0;strokeColor=#ff0000;" vertex="1" parent="wAXHmxslM8Cl57u_N9g3-1">
          <mxGeometry x="220" y="570" width="150" height="60" as="geometry" />
        </mxCell>
        <mxCell id="vjihE0JekyVUu6mDylmC-0" value="no" style="edgeStyle=orthogonalEdgeStyle;html=1;align=left;verticalAlign=bottom;endArrow=open;endSize=8;strokeColor=#ff0000;entryX=0;entryY=0.75;entryDx=0;entryDy=0;exitX=1;exitY=0.5;exitDx=0;exitDy=0;" edge="1" parent="wAXHmxslM8Cl57u_N9g3-1" source="LAQwIaWgyO3f-h2tZl_8-0">
          <mxGeometry x="-1" relative="1" as="geometry">
            <mxPoint x="575" y="1060" as="targetPoint" />
            <mxPoint x="400" y="820" as="sourcePoint" />
          </mxGeometry>
        </mxCell>
        <mxCell id="vjihE0JekyVUu6mDylmC-1" value="yes" style="edgeStyle=orthogonalEdgeStyle;html=1;align=left;verticalAlign=top;endArrow=open;endSize=8;strokeColor=#ff0000;exitX=0.5;exitY=1;exitDx=0;exitDy=0;entryX=0.444;entryY=0;entryDx=0;entryDy=0;entryPerimeter=0;" edge="1" parent="wAXHmxslM8Cl57u_N9g3-1" source="LAQwIaWgyO3f-h2tZl_8-0" target="GLDer27ryoeM9erMsBxQ-0">
          <mxGeometry x="-1" relative="1" as="geometry">
            <mxPoint x="295" y="740" as="targetPoint" />
            <mxPoint x="330" y="620" as="sourcePoint" />
            <Array as="points">
              <mxPoint x="287" y="630" />
            </Array>
          </mxGeometry>
        </mxCell>
        <mxCell id="GLDer27ryoeM9erMsBxQ-0" value="Odgovorio na 15 pitanja" style="rhombus;whiteSpace=wrap;html=1;fillColor=#ffffc0;strokeColor=#ff0000;rotation=0;" vertex="1" parent="wAXHmxslM8Cl57u_N9g3-1">
          <mxGeometry x="210" y="770" width="152.5" height="70" as="geometry" />
        </mxCell>
        <mxCell id="idrOUBfxhzBLN-v7OzdE-0" value="" style="ellipse;html=1;shape=endState;fillColor=#000000;strokeColor=#ff0000;" vertex="1" parent="wAXHmxslM8Cl57u_N9g3-1">
          <mxGeometry x="535" y="1180" width="30" height="30" as="geometry" />
        </mxCell>
        <mxCell id="idrOUBfxhzBLN-v7OzdE-9" value="no" style="edgeStyle=orthogonalEdgeStyle;html=1;align=left;verticalAlign=bottom;endArrow=open;endSize=8;strokeColor=#ff0000;exitX=0;exitY=0.5;exitDx=0;exitDy=0;entryX=0;entryY=0;entryDx=0;entryDy=0;" edge="1" parent="wAXHmxslM8Cl57u_N9g3-1" target="jcJg4d79mtAPE0NVaKH0-1" source="GLDer27ryoeM9erMsBxQ-0">
          <mxGeometry x="-1" relative="1" as="geometry">
            <mxPoint x="270" y="240" as="targetPoint" />
            <mxPoint x="140" y="790" as="sourcePoint" />
            <Array as="points">
              <mxPoint x="130" y="805" />
              <mxPoint x="130" y="240" />
            </Array>
          </mxGeometry>
        </mxCell>
        <mxCell id="idrOUBfxhzBLN-v7OzdE-10" value="yes" style="edgeStyle=orthogonalEdgeStyle;html=1;align=left;verticalAlign=top;endArrow=open;endSize=8;strokeColor=#ff0000;entryX=0.25;entryY=0;entryDx=0;entryDy=0;exitX=1;exitY=0.5;exitDx=0;exitDy=0;" edge="1" parent="wAXHmxslM8Cl57u_N9g3-1" source="GLDer27ryoeM9erMsBxQ-0">
          <mxGeometry x="-1" relative="1" as="geometry">
            <mxPoint x="540" y="1060" as="targetPoint" />
            <Array as="points">
              <mxPoint x="363" y="1000" />
              <mxPoint x="540" y="1000" />
            </Array>
            <mxPoint x="322.5" y="970" as="sourcePoint" />
          </mxGeometry>
        </mxCell>
        <mxCell id="7IzMunfAg_1IMbJEd-ez-0" value="Izracun osvojenog iznosa" style="swimlane;html=1;fontStyle=1;align=center;verticalAlign=middle;childLayout=stackLayout;horizontal=1;startSize=30;horizontalStack=0;resizeParent=0;resizeLast=1;container=0;fontColor=#000000;collapsible=0;rounded=1;arcSize=30;strokeColor=#ff0000;fillColor=#ffffc0;swimlaneFillColor=#ffffc0;dropTarget=0;" vertex="1" parent="wAXHmxslM8Cl57u_N9g3-1">
          <mxGeometry x="470" y="1060" width="160" height="60" as="geometry" />
        </mxCell>
        <mxCell id="7IzMunfAg_1IMbJEd-ez-1" value="Include/ Izracun osvojenog iznosa" style="text;html=1;strokeColor=none;fillColor=none;align=center;verticalAlign=middle;spacingLeft=4;spacingRight=4;whiteSpace=wrap;overflow=hidden;rotatable=0;fontColor=#000000;" vertex="1" parent="7IzMunfAg_1IMbJEd-ez-0">
          <mxGeometry y="30" width="160" height="30" as="geometry" />
        </mxCell>
        <mxCell id="7IzMunfAg_1IMbJEd-ez-2" value="" style="edgeStyle=orthogonalEdgeStyle;html=1;verticalAlign=bottom;endArrow=open;endSize=8;strokeColor=#ff0000;entryX=0.5;entryY=0;entryDx=0;entryDy=0;" edge="1" source="7IzMunfAg_1IMbJEd-ez-0" parent="wAXHmxslM8Cl57u_N9g3-1" target="idrOUBfxhzBLN-v7OzdE-0">
          <mxGeometry relative="1" as="geometry">
            <mxPoint x="550" y="1180" as="targetPoint" />
          </mxGeometry>
        </mxCell>
      </root>
    </mxGraphModel>
  </diagram>
  <diagram id="gkAMy2GrhTfOVn9qZDK9" name="Page-4">
    <mxGraphModel dx="957" dy="542" grid="1" gridSize="10" guides="1" tooltips="1" connect="1" arrows="1" fold="1" page="1" pageScale="1" pageWidth="827" pageHeight="1169" math="0" shadow="0">
      <root>
        <mxCell id="FTqvIjPwVwlqrAweObdp-0" />
        <mxCell id="FTqvIjPwVwlqrAweObdp-1" parent="FTqvIjPwVwlqrAweObdp-0" />
      </root>
    </mxGraphModel>
  </diagram>
</mxfile>
